<svg xmlns="http://www.w3.org/2000/svg" viewBox="0 0 1200 800" role="img" aria-labelledby="title desc">
<title id="title">Parchment texture</title>
<desc id="desc">A subtle vector paper texture made from low-opacity mineral specks and soft irregular washes.</desc>
<rect width="1200" height="800" fill="#F4EFE5"/>
<rect x="26" y="25" width="1148" height="750" rx="52" fill="#E8DDC8" opacity=".52"/>
<circle cx="555.6" cy="298.6" r="0.74" fill="#D8CBB6" opacity="0.13"/><circle cx="556.5" cy="483.8" r="1.07" fill="#8DAA91" opacity="0.19"/><circle cx="873.8" cy="135.5" r="2.11" fill="#D4A4A0" opacity="0.11"/><circle cx="285.6" cy="88.8" r="1.36" fill="#8DAA91" opacity="0.09"/><circle cx="826.1" cy="631.7" r="2.01" fill="#E8DDC8" opacity="0.11"/><circle cx="269.2" cy="634.4" r="2.01" fill="#E8DDC8" opacity="0.23"/><circle cx="475.9" cy="273.3" r="0.57" fill="#D8CBB6" opacity="0.22"/><circle cx="65.7" cy="303.1" r="1.34" fill="#D8CBB6" opacity="0.12"/><circle cx="883.5" cy="680.6" r="2.14" fill="#D8CBB6" opacity="0.10"/><circle cx="694.4" cy="716.2" r="0.85" fill="#D8CBB6" opacity="0.22"/><circle cx="159.8" cy="734.1" r="1.35" fill="#8DAA91" opacity="0.16"/><circle cx="1105.1" cy="336.1" r="1.18" fill="#D8CBB6" opacity="0.19"/><circle cx="174.4" cy="751.8" r="1.72" fill="#D8CBB6" opacity="0.09"/><circle cx="666.1" cy="485.1" r="0.75" fill="#E8DDC8" opacity="0.20"/><circle cx="690.3" cy="27.4" r="1.98" fill="#D4A4A0" opacity="0.23"/><circle cx="284.1" cy="488.9" r="0.57" fill="#E8DDC8" opacity="0.22"/><circle cx="626.5" cy="452.2" r="1.67" fill="#E8DDC8" opacity="0.10"/><circle cx="1058.1" cy="292.5" r="0.86" fill="#A89C8C" opacity="0.24"/><circle cx="689.3" cy="14.7" r="1.86" fill="#E8DDC8" opacity="0.08"/><circle cx="134.0" cy="177.4" r="0.96" fill="#D8CBB6" opacity="0.13"/><circle cx="341.9" cy="414.0" r="0.59" fill="#D4A4A0" opacity="0.20"/><circle cx="969.1" cy="397.9" r="1.71" fill="#A89C8C" opacity="0.17"/><circle cx="79.5" cy="518.3" r="0.66" fill="#D4A4A0" opacity="0.16"/><circle cx="1147.0" cy="448.4" r="0.74" fill="#E8DDC8" opacity="0.11"/><circle cx="1011.9" cy="207.1" r="0.59" fill="#A89C8C" opacity="0.12"/><circle cx="197.1" cy="96.2" r="0.75" fill="#D8CBB6" opacity="0.09"/><circle cx="250.3" cy="311.1" r="1.54" fill="#E8DDC8" opacity="0.13"/><circle cx="577.1" cy="222.2" r="2.14" fill="#8DAA91" opacity="0.13"/><circle cx="141.5" cy="335.9" r="0.74" fill="#8DAA91" opacity="0.20"/><circle cx="459.6" cy="709.7" r="0.79" fill="#E8DDC8" opacity="0.20"/><circle cx="1056.3" cy="395.5" r="0.67" fill="#D8CBB6" opacity="0.12"/><circle cx="154.0" cy="638.7" r="1.89" fill="#A89C8C" opacity="0.20"/><circle cx="266.9" cy="10.4" r="0.80" fill="#D4A4A0" opacity="0.17"/><circle cx="654.6" cy="66.6" r="1.43" fill="#8DAA91" opacity="0.23"/><circle cx="642.5" cy="753.0" r="0.55" fill="#8DAA91" opacity="0.22"/><circle cx="653.2" cy="418.8" r="1.41" fill="#D8CBB6" opacity="0.22"/><circle cx="688.7" cy="764.3" r="0.61" fill="#A89C8C" opacity="0.20"/><circle cx="123.9" cy="559.6" r="1.27" fill="#D4A4A0" opacity="0.22"/><circle cx="873.0" cy="543.0" r="0.55" fill="#A89C8C" opacity="0.22"/><circle cx="277.3" cy="658.5" r="1.74" fill="#8DAA91" opacity="0.16"/><circle cx="291.7" cy="498.0" r="0.64" fill="#D8CBB6" opacity="0.19"/><circle cx="488.0" cy="55.2" r="0.82" fill="#8DAA91" opacity="0.20"/><circle cx="101.3" cy="23.9" r="1.56" fill="#8DAA91" opacity="0.17"/><circle cx="31.2" cy="620.5" r="1.07" fill="#E8DDC8" opacity="0.08"/><circle cx="1144.8" cy="472.2" r="2.16" fill="#D4A4A0" opacity="0.21"/><circle cx="127.5" cy="279.0" r="0.89" fill="#A89C8C" opacity="0.11"/><circle cx="265.4" cy="88.5" r="0.70" fill="#D8CBB6" opacity="0.14"/><circle cx="889.3" cy="374.0" r="1.39" fill="#E8DDC8" opacity="0.22"/><circle cx="97.4" cy="4.4" r="1.80" fill="#A89C8C" opacity="0.08"/><circle cx="303.9" cy="488.6" r="2.13" fill="#8DAA91" opacity="0.21"/><circle cx="69.4" cy="201.0" r="1.95" fill="#8DAA91" opacity="0.22"/><circle cx="766.7" cy="545.0" r="0.72" fill="#D8CBB6" opacity="0.21"/><circle cx="1170.7" cy="629.0" r="2.03" fill="#D8CBB6" opacity="0.22"/><circle cx="1104.0" cy="774.0" r="0.66" fill="#E8DDC8" opacity="0.15"/><circle cx="499.9" cy="257.4" r="1.46" fill="#D4A4A0" opacity="0.15"/><circle cx="94.3" cy="240.7" r="1.29" fill="#8DAA91" opacity="0.15"/><circle cx="462.0" cy="263.6" r="0.60" fill="#D8CBB6" opacity="0.11"/><circle cx="652.7" cy="150.8" r="1.71" fill="#A89C8C" opacity="0.23"/><circle cx="103.1" cy="779.9" r="2.14" fill="#8DAA91" opacity="0.20"/><circle cx="1060.3" cy="586.8" r="0.86" fill="#8DAA91" opacity="0.20"/><circle cx="91.0" cy="535.8" r="1.22" fill="#A89C8C" opacity="0.22"/><circle cx="388.4" cy="666.9" r="1.37" fill="#D8CBB6" opacity="0.15"/><circle cx="3.8" cy="734.1" r="0.85" fill="#A89C8C" opacity="0.08"/><circle cx="1105.2" cy="33.6" r="0.75" fill="#A89C8C" opacity="0.19"/><circle cx="611.5" cy="631.8" r="1.19" fill="#D4A4A0" opacity="0.14"/><circle cx="703.9" cy="694.7" r="1.36" fill="#E8DDC8" opacity="0.14"/><circle cx="323.9" cy="256.4" r="1.15" fill="#A89C8C" opacity="0.21"/><circle cx="932.6" cy="142.5" r="0.79" fill="#E8DDC8" opacity="0.19"/><circle cx="24.1" cy="383.0" r="1.97" fill="#D4A4A0" opacity="0.23"/><circle cx="905.6" cy="218.2" r="0.74" fill="#D4A4A0" opacity="0.16"/><circle cx="1192.8" cy="143.3" r="0.75" fill="#E8DDC8" opacity="0.20"/><circle cx="61.0" cy="222.9" r="1.09" fill="#8DAA91" opacity="0.11"/><circle cx="934.3" cy="535.3" r="0.66" fill="#A89C8C" opacity="0.13"/><circle cx="897.4" cy="107.5" r="1.22" fill="#8DAA91" opacity="0.11"/><circle cx="822.9" cy="338.5" r="1.94" fill="#D8CBB6" opacity="0.23"/><circle cx="858.8" cy="397.0" r="0.60" fill="#D4A4A0" opacity="0.22"/><circle cx="524.9" cy="581.3" r="0.82" fill="#D8CBB6" opacity="0.23"/><circle cx="1157.0" cy="67.9" r="1.10" fill="#A89C8C" opacity="0.20"/><circle cx="1162.9" cy="149.1" r="1.40" fill="#8DAA91" opacity="0.13"/><circle cx="267.5" cy="798.3" r="0.55" fill="#8DAA91" opacity="0.17"/><circle cx="240.4" cy="665.8" r="0.98" fill="#A89C8C" opacity="0.13"/><circle cx="474.7" cy="61.1" r="1.90" fill="#A89C8C" opacity="0.15"/><circle cx="1157.5" cy="33.5" r="0.79" fill="#A89C8C" opacity="0.22"/><circle cx="853.2" cy="509.7" r="1.85" fill="#8DAA91" opacity="0.14"/><circle cx="908.2" cy="708.0" r="1.35" fill="#D4A4A0" opacity="0.09"/><circle cx="1199.0" cy="112.1" r="1.21" fill="#A89C8C" opacity="0.21"/><circle cx="798.8" cy="493.7" r="1.37" fill="#D4A4A0" opacity="0.16"/><circle cx="304.5" cy="490.1" r="2.11" fill="#E8DDC8" opacity="0.17"/><circle cx="1197.9" cy="590.7" r="1.60" fill="#D4A4A0" opacity="0.13"/><circle cx="1021.9" cy="165.0" r="0.53" fill="#D4A4A0" opacity="0.20"/><circle cx="305.7" cy="236.3" r="0.52" fill="#D4A4A0" opacity="0.23"/><circle cx="444.1" cy="510.9" r="1.05" fill="#A89C8C" opacity="0.17"/><circle cx="35.1" cy="593.5" r="0.86" fill="#D8CBB6" opacity="0.11"/><circle cx="310.0" cy="706.4" r="1.25" fill="#E8DDC8" opacity="0.17"/><circle cx="846.5" cy="60.4" r="1.70" fill="#D4A4A0" opacity="0.23"/><circle cx="70.9" cy="457.9" r="1.36" fill="#D4A4A0" opacity="0.14"/><circle cx="794.9" cy="717.6" r="1.09" fill="#8DAA91" opacity="0.16"/><circle cx="490.5" cy="129.0" r="1.43" fill="#E8DDC8" opacity="0.15"/><circle cx="345.2" cy="638.2" r="1.41" fill="#D8CBB6" opacity="0.09"/><circle cx="430.7" cy="582.3" r="1.62" fill="#D4A4A0" opacity="0.12"/><circle cx="542.5" cy="52.1" r="2.12" fill="#D4A4A0" opacity="0.16"/><circle cx="875.9" cy="51.1" r="0.70" fill="#E8DDC8" opacity="0.15"/><circle cx="23.0" cy="348.4" r="1.16" fill="#A89C8C" opacity="0.24"/><circle cx="1148.2" cy="784.1" r="0.79" fill="#D8CBB6" opacity="0.12"/><circle cx="852.4" cy="415.0" r="1.51" fill="#D8CBB6" opacity="0.11"/><circle cx="732.9" cy="304.5" r="0.97" fill="#A89C8C" opacity="0.24"/><circle cx="88.7" cy="419.5" r="1.02" fill="#D4A4A0" opacity="0.22"/><circle cx="237.7" cy="378.2" r="1.61" fill="#D4A4A0" opacity="0.21"/><circle cx="607.0" cy="764.6" r="2.17" fill="#8DAA91" opacity="0.20"/><circle cx="556.1" cy="472.3" r="1.58" fill="#D4A4A0" opacity="0.21"/><circle cx="97.8" cy="603.2" r="1.93" fill="#E8DDC8" opacity="0.09"/><circle cx="573.7" cy="470.2" r="1.41" fill="#A89C8C" opacity="0.24"/><circle cx="586.5" cy="330.4" r="1.34" fill="#D8CBB6" opacity="0.17"/><circle cx="14.8" cy="227.9" r="1.69" fill="#D8CBB6" opacity="0.22"/><circle cx="683.8" cy="211.7" r="1.45" fill="#E8DDC8" opacity="0.08"/><circle cx="1047.7" cy="408.8" r="1.25" fill="#8DAA91" opacity="0.23"/><circle cx="1198.7" cy="259.3" r="0.80" fill="#E8DDC8" opacity="0.19"/><circle cx="382.3" cy="381.7" r="2.00" fill="#E8DDC8" opacity="0.23"/><circle cx="340.2" cy="75.1" r="1.46" fill="#E8DDC8" opacity="0.21"/><circle cx="730.4" cy="646.8" r="0.62" fill="#D4A4A0" opacity="0.12"/><circle cx="353.1" cy="301.1" r="1.37" fill="#A89C8C" opacity="0.11"/><circle cx="823.5" cy="95.1" r="0.62" fill="#D8CBB6" opacity="0.20"/><circle cx="1039.4" cy="229.7" r="1.32" fill="#E8DDC8" opacity="0.20"/><circle cx="536.3" cy="136.7" r="1.92" fill="#E8DDC8" opacity="0.23"/><circle cx="115.6" cy="607.8" r="1.89" fill="#E8DDC8" opacity="0.18"/><circle cx="312.0" cy="160.1" r="1.68" fill="#A89C8C" opacity="0.16"/><circle cx="644.9" cy="326.4" r="1.71" fill="#E8DDC8" opacity="0.15"/><circle cx="484.0" cy="70.5" r="0.95" fill="#A89C8C" opacity="0.20"/><circle cx="220.7" cy="17.1" r="1.52" fill="#A89C8C" opacity="0.15"/><circle cx="147.0" cy="84.5" r="1.55" fill="#D4A4A0" opacity="0.17"/><circle cx="977.4" cy="107.7" r="1.07" fill="#A89C8C" opacity="0.14"/><circle cx="1116.4" cy="67.2" r="0.64" fill="#E8DDC8" opacity="0.17"/><circle cx="1135.7" cy="516.5" r="1.65" fill="#8DAA91" opacity="0.22"/><circle cx="1125.2" cy="500.9" r="0.94" fill="#8DAA91" opacity="0.13"/><circle cx="441.8" cy="234.6" r="0.85" fill="#8DAA91" opacity="0.11"/><circle cx="983.8" cy="97.9" r="0.90" fill="#A89C8C" opacity="0.21"/><circle cx="20.8" cy="553.6" r="1.54" fill="#D4A4A0" opacity="0.10"/><circle cx="857.5" cy="552.1" r="1.50" fill="#D4A4A0" opacity="0.09"/><circle cx="178.5" cy="86.0" r="1.36" fill="#A89C8C" opacity="0.16"/><circle cx="312.3" cy="294.2" r="2.01" fill="#8DAA91" opacity="0.17"/><circle cx="338.6" cy="94.3" r="0.89" fill="#D4A4A0" opacity="0.22"/><circle cx="895.4" cy="417.9" r="1.94" fill="#E8DDC8" opacity="0.11"/><circle cx="811.4" cy="532.4" r="1.76" fill="#D8CBB6" opacity="0.11"/><circle cx="913.6" cy="567.3" r="1.73" fill="#D8CBB6" opacity="0.22"/><circle cx="855.7" cy="41.7" r="1.74" fill="#A89C8C" opacity="0.13"/><circle cx="1028.9" cy="243.0" r="0.62" fill="#8DAA91" opacity="0.24"/><circle cx="252.0" cy="718.8" r="0.85" fill="#D8CBB6" opacity="0.09"/><circle cx="382.9" cy="367.6" r="1.63" fill="#8DAA91" opacity="0.19"/><circle cx="710.6" cy="78.7" r="2.04" fill="#E8DDC8" opacity="0.20"/><circle cx="308.8" cy="46.7" r="1.12" fill="#D8CBB6" opacity="0.22"/><circle cx="918.2" cy="557.8" r="2.08" fill="#8DAA91" opacity="0.12"/><circle cx="30.9" cy="42.4" r="0.51" fill="#E8DDC8" opacity="0.19"/><circle cx="157.4" cy="795.0" r="1.61" fill="#8DAA91" opacity="0.19"/><circle cx="639.5" cy="254.3" r="1.74" fill="#D4A4A0" opacity="0.17"/><circle cx="269.2" cy="376.1" r="0.96" fill="#D8CBB6" opacity="0.16"/><circle cx="249.4" cy="358.4" r="1.30" fill="#D4A4A0" opacity="0.14"/><circle cx="224.4" cy="371.9" r="0.66" fill="#D8CBB6" opacity="0.10"/><circle cx="987.5" cy="56.1" r="0.94" fill="#E8DDC8" opacity="0.10"/><circle cx="331.0" cy="330.3" r="2.11" fill="#D4A4A0" opacity="0.11"/><circle cx="769.0" cy="663.7" r="1.37" fill="#E8DDC8" opacity="0.14"/><circle cx="238.7" cy="702.3" r="1.96" fill="#E8DDC8" opacity="0.20"/><circle cx="709.3" cy="53.8" r="2.09" fill="#D4A4A0" opacity="0.18"/><circle cx="855.8" cy="482.9" r="0.53" fill="#E8DDC8" opacity="0.11"/><circle cx="874.4" cy="353.9" r="0.59" fill="#D8CBB6" opacity="0.20"/><circle cx="548.3" cy="21.1" r="2.18" fill="#D4A4A0" opacity="0.09"/><circle cx="514.7" cy="259.6" r="1.61" fill="#D8CBB6" opacity="0.15"/><circle cx="95.1" cy="413.2" r="1.09" fill="#D8CBB6" opacity="0.19"/><circle cx="1040.1" cy="330.2" r="0.58" fill="#E8DDC8" opacity="0.15"/><circle cx="428.4" cy="443.7" r="1.75" fill="#D4A4A0" opacity="0.13"/><circle cx="1144.0" cy="12.5" r="0.82" fill="#D8CBB6" opacity="0.23"/><circle cx="1196.0" cy="574.6" r="1.51" fill="#D8CBB6" opacity="0.14"/><circle cx="579.4" cy="541.8" r="2.07" fill="#E8DDC8" opacity="0.22"/><circle cx="294.3" cy="452.9" r="1.12" fill="#D8CBB6" opacity="0.23"/><circle cx="80.8" cy="474.9" r="1.03" fill="#8DAA91" opacity="0.23"/><circle cx="465.3" cy="404.7" r="1.05" fill="#8DAA91" opacity="0.14"/><circle cx="409.7" cy="617.0" r="0.63" fill="#D8CBB6" opacity="0.21"/><circle cx="406.0" cy="159.6" r="0.67" fill="#8DAA91" opacity="0.12"/><circle cx="165.7" cy="275.8" r="0.90" fill="#8DAA91" opacity="0.22"/><circle cx="413.1" cy="46.7" r="1.00" fill="#8DAA91" opacity="0.10"/><circle cx="15.1" cy="681.1" r="2.14" fill="#8DAA91" opacity="0.12"/><ellipse cx="773.6" cy="745.7" rx="144.8" ry="16.7" fill="#D8CBB6" opacity="0.07" transform="rotate(-21.9 773.6 745.7)"/><ellipse cx="868.5" cy="216.4" rx="68.9" ry="25.1" fill="#D8CBB6" opacity="0.07" transform="rotate(-2.6 868.5 216.4)"/><ellipse cx="336.6" cy="691.7" rx="40.2" ry="19.2" fill="#A89C8C" opacity="0.09" transform="rotate(7.7 336.6 691.7)"/><ellipse cx="1151.9" cy="80.4" rx="77.3" ry="29.8" fill="#E8DDC8" opacity="0.11" transform="rotate(11.9 1151.9 80.4)"/><ellipse cx="770.0" cy="365.1" rx="157.1" ry="35.5" fill="#D8CBB6" opacity="0.09" transform="rotate(-5.8 770.0 365.1)"/><ellipse cx="675.1" cy="537.8" rx="105.1" ry="31.6" fill="#A89C8C" opacity="0.11" transform="rotate(-22.5 675.1 537.8)"/><ellipse cx="6.1" cy="38.9" rx="130.6" ry="20.2" fill="#D8CBB6" opacity="0.04" transform="rotate(-8.4 6.1 38.9)"/><ellipse cx="1174.6" cy="129.6" rx="122.1" ry="11.7" fill="#D8CBB6" opacity="0.09" transform="rotate(5.3 1174.6 129.6)"/><ellipse cx="318.3" cy="792.3" rx="151.8" ry="39.6" fill="#D8CBB6" opacity="0.04" transform="rotate(11.0 318.3 792.3)"/><ellipse cx="284.5" cy="361.6" rx="131.6" ry="10.8" fill="#A89C8C" opacity="0.08" transform="rotate(-14.7 284.5 361.6)"/><ellipse cx="523.3" cy="19.4" rx="51.0" ry="38.2" fill="#E8DDC8" opacity="0.07" transform="rotate(-20.5 523.3 19.4)"/><ellipse cx="859.0" cy="196.8" rx="128.7" ry="36.5" fill="#A89C8C" opacity="0.05" transform="rotate(-24.1 859.0 196.8)"/><ellipse cx="451.7" cy="127.3" rx="51.8" ry="37.7" fill="#D8CBB6" opacity="0.10" transform="rotate(4.6 451.7 127.3)"/><ellipse cx="748.2" cy="159.6" rx="138.4" ry="35.7" fill="#E8DDC8" opacity="0.13" transform="rotate(-21.3 748.2 159.6)"/><ellipse cx="1091.8" cy="171.6" rx="81.9" ry="19.1" fill="#E8DDC8" opacity="0.12" transform="rotate(10.2 1091.8 171.6)"/><ellipse cx="1048.6" cy="762.0" rx="50.9" ry="40.0" fill="#E8DDC8" opacity="0.12" transform="rotate(-8.4 1048.6 762.0)"/><ellipse cx="360.8" cy="546.2" rx="55.7" ry="14.6" fill="#E8DDC8" opacity="0.09" transform="rotate(-2.3 360.8 546.2)"/><ellipse cx="181.9" cy="575.5" rx="71.5" ry="10.6" fill="#D8CBB6" opacity="0.12" transform="rotate(22.9 181.9 575.5)"/><ellipse cx="450.6" cy="24.0" rx="49.0" ry="32.5" fill="#A89C8C" opacity="0.12" transform="rotate(15.9 450.6 24.0)"/><ellipse cx="899.3" cy="614.5" rx="95.0" ry="11.1" fill="#E8DDC8" opacity="0.07" transform="rotate(13.7 899.3 614.5)"/><ellipse cx="750.6" cy="118.1" rx="155.4" ry="31.3" fill="#A89C8C" opacity="0.10" transform="rotate(-21.8 750.6 118.1)"/><ellipse cx="594.4" cy="432.0" rx="84.5" ry="37.2" fill="#A89C8C" opacity="0.13" transform="rotate(10.5 594.4 432.0)"/><ellipse cx="765.9" cy="620.8" rx="106.7" ry="32.7" fill="#E8DDC8" opacity="0.11" transform="rotate(13.7 765.9 620.8)"/><ellipse cx="1056.7" cy="116.8" rx="103.1" ry="38.3" fill="#A89C8C" opacity="0.12" transform="rotate(-23.1 1056.7 116.8)"/><ellipse cx="188.8" cy="616.0" rx="43.0" ry="36.7" fill="#D8CBB6" opacity="0.05" transform="rotate(-1.9 188.8 616.0)"/><ellipse cx="325.7" cy="426.5" rx="40.7" ry="39.2" fill="#D8CBB6" opacity="0.12" transform="rotate(-16.3 325.7 426.5)"/><ellipse cx="511.3" cy="330.1" rx="138.5" ry="27.1" fill="#D8CBB6" opacity="0.10" transform="rotate(1.9 511.3 330.1)"/><ellipse cx="1050.2" cy="646.6" rx="52.4" ry="20.0" fill="#D8CBB6" opacity="0.10" transform="rotate(-2.4 1050.2 646.6)"/><ellipse cx="809.0" cy="196.9" rx="58.5" ry="28.7" fill="#D8CBB6" opacity="0.10" transform="rotate(-19.8 809.0 196.9)"/><ellipse cx="1047.8" cy="6.4" rx="48.8" ry="39.6" fill="#E8DDC8" opacity="0.06" transform="rotate(-20.4 1047.8 6.4)"/><ellipse cx="1081.0" cy="151.7" rx="78.7" ry="33.8" fill="#E8DDC8" opacity="0.07" transform="rotate(-0.5 1081.0 151.7)"/><ellipse cx="990.5" cy="401.5" rx="143.4" ry="26.5" fill="#E8DDC8" opacity="0.13" transform="rotate(-7.3 990.5 401.5)"/><ellipse cx="656.5" cy="418.0" rx="112.4" ry="30.3" fill="#E8DDC8" opacity="0.12" transform="rotate(-11.4 656.5 418.0)"/><ellipse cx="941.9" cy="598.8" rx="61.0" ry="23.7" fill="#E8DDC8" opacity="0.09" transform="rotate(-20.3 941.9 598.8)"/><ellipse cx="689.1" cy="269.5" rx="82.4" ry="18.2" fill="#E8DDC8" opacity="0.10" transform="rotate(-20.4 689.1 269.5)"/><ellipse cx="7.4" cy="173.7" rx="45.3" ry="17.3" fill="#A89C8C" opacity="0.08" transform="rotate(23.8 7.4 173.7)"/>
</svg>
