<svg xmlns="http://www.w3.org/2000/svg" viewBox="0 0 520 360" role="img" aria-labelledby="title desc">
<title id="title">Computer builds section illustration</title>
<desc id="desc">Elegant modular computer chassis with thermal lines and component outlines.</desc>
<rect width="520" height="360" rx="28" fill="#F4EFE5"/>
<ellipse cx="270" cy="188" rx="174" ry="112" fill="#6E87A3" opacity=".16"/>
<g stroke="#263245" stroke-linejoin="round" stroke-linecap="round">
  <rect x="164" y="71" width="190" height="234" rx="18" fill="#E8DDC8" stroke-width="4"/>
  <rect x="190" y="102" width="138" height="172" rx="11" fill="#F4EFE5" stroke-width="3"/>
  <rect x="208" y="122" width="58" height="52" rx="8" fill="#6E87A3" opacity=".8" stroke-width="2.5"/>
  <circle cx="292" cy="148" r="23" fill="none" stroke-width="3"/>
  <circle cx="292" cy="148" r="7" fill="#C9A86A" stroke="none"/>
  <path d="M292 125 v46 M269 148 h46 M276 132 l32 32 M308 132 l-32 32" fill="none" stroke="#A89C8C" stroke-width="2"/>
  <rect x="213" y="205" width="95" height="28" rx="5" fill="#8DAA91" opacity=".75" stroke-width="2.5"/>
  <path d="M326 107 h15 M326 128 h15 M326 149 h15 M326 170 h15 M326 191 h15 M326 212 h15 M326 233 h15" stroke-width="2.4"/>
</g>
<g fill="none" stroke="#C9A86A" stroke-width="2.2" stroke-linecap="round" opacity=".75">
  <path d="M118 122 C88 147 83 197 111 226"/>
  <path d="M401 122 C431 147 436 197 408 226"/>
  <path d="M121 160 C105 176 104 195 118 210"/>
  <path d="M398 160 C414 176 415 195 401 210"/>
</g>
<g fill="none" stroke="#A89C8C" stroke-width="1.8" opacity=".6" stroke-linecap="round">
  <path d="M78 285 h80 M362 285 h78"/>
  <path d="M88 83 h40 M391 83 h40"/>
</g>
</svg>
