<svg xmlns="http://www.w3.org/2000/svg" viewBox="0 0 640 220" role="img" aria-labelledby="title desc">
<title id="title">Kiratis primary horizontal logo</title>
<desc id="desc">Horizontal logo with ancient-science circular mark and Kiratis LLC wordmark.</desc>

<style>
  .ink { stroke: #263245; }
  .fill-ink { fill: #263245; }
  .parchment { fill: #E8DDC8; }
  .warm { fill: #F4EFE5; }
  .sage { fill: #8DAA91; }
  .clay { fill: #C58C6D; }
  .gold { fill: #C9A86A; }
  .slate { fill: #6E87A3; }
  .stone { fill: #A89C8C; }
  .no-fill { fill: none; }
  .line { fill: none; stroke-linecap: round; stroke-linejoin: round; vector-effect: non-scaling-stroke; }
</style>

<rect width="640" height="220" rx="28" fill="#F4EFE5"/>
<g transform="translate(36 30)">
  <circle cx="80" cy="80" r="62" fill="#E8DDC8" stroke="#263245" stroke-width="5"/>
  <circle cx="80" cy="80" r="46" fill="none" stroke="#A89C8C" stroke-width="2" stroke-dasharray="1 9" stroke-linecap="round"/>
  <ellipse cx="80" cy="80" rx="72" ry="27" fill="none" stroke="#8DAA91" stroke-width="2.8" opacity=".88" transform="rotate(-18 80 80)"/>
  <path d="M61 41 C64 56 64 68 63 80 C62 96 61 110 58 121" fill="none" stroke="#263245" stroke-width="10" stroke-linecap="round"/>
  <path d="M96 45 C84 61 75 71 64 80 C78 89 91 101 103 119" fill="none" stroke="#263245" stroke-width="10" stroke-linecap="round" stroke-linejoin="round"/>
  <circle cx="111" cy="44" r="6" fill="#C9A86A"/>
</g>
<g transform="translate(220 74)">
  <text x="0" y="36" font-family="Georgia, 'Times New Roman', serif" font-size="58" letter-spacing="3" fill="#263245">KIRATIS</text>
  <path d="M2 57 C66 50 154 65 236 56 C282 51 334 51 386 58" fill="none" stroke="#8DAA91" stroke-width="3" stroke-linecap="round" opacity=".8"/>
  <text x="4" y="88" font-family="Inter, Avenir, Helvetica, Arial, sans-serif" font-size="18" letter-spacing="9" fill="#9C6B4E">LLC</text>
</g>
</svg>
